<?xml version="1.0"?>
<svg xmlns:rdf="http://www.w3.org/1999/02/22-rdf-syntax-ns#" xmlns="http://www.w3.org/2000/svg" xmlns:cc="http://web.resource.org/cc/" xmlns:xlink="http://www.w3.org/1999/xlink" xmlns:dc="http://purl.org/dc/elements/1.1/" xmlns:svg="http://www.w3.org/2000/svg" id="svg2" viewBox="0 0 280.01 218.45" version="1.0">
  <g id="layer1" transform="translate(-262.47 -157.83)">
    <path id="path2773" d="m434.37 314.45c0 49.93-40.93 90.4-91.42 90.4s-91.42-40.47-91.42-90.4c0-49.94 40.93-90.41 91.42-90.41s91.42 40.47 91.42 90.41z" transform="translate(61.619 -34.345)" stroke="#0000fb" stroke-linecap="round" stroke-width="2.9" fill="#969696"/>
    <rect id="rect2170" transform="matrix(-.98094 .19432 -.94581 -.32471 0 0)" ry="0" height="117.94" width="163.62" stroke="#000" stroke-linecap="round" y="-598.53" x="28.531" stroke-width="1.1015"/>
    <path id="path2769" d="m402.25 192.96c23.91-4.49 63.67 24.17 85.31 14.12 6.95-3.23-2.07 20.38-1.49 30.4 0.36 6.07-0.22 11.83-0.72 17.97-0.14 1.76-0.28 3.51-0.43 5.27" stroke="#ffc700" stroke-width="6.2385" fill="none"/>
    <path id="path2751" d="m38.386 260.91c0 2.51-5.88 4.54-13.132 4.54-7.253 0-13.132-2.03-13.132-4.54s5.879-4.55 13.132-4.55c7.252 0 13.132 2.04 13.132 4.55z" transform="translate(382.89 -68.812)" stroke="#ffb1bc" stroke-linecap="round" stroke-width="2.4"/>
    <path id="path2771" d="m485.7 251.25c-0.86 5.4-0.79 17.39-0.79 26.2 0 3.23-0.99 1.49-2.02 3.03" stroke="#ded200" stroke-width="13.8" fill-opacity="0"/>
  </g>
  <metadata>
    <rdf:RDF>
      <cc:Work>
        <dc:format>image/svg+xml</dc:format>
        <dc:type rdf:resource="http://purl.org/dc/dcmitype/StillImage"/>
        <cc:license rdf:resource="http://creativecommons.org/licenses/publicdomain/"/>
        <dc:publisher>
          <cc:Agent rdf:about="http://openclipart.org/">
            <dc:title>Openclipart</dc:title>
          </cc:Agent>
        </dc:publisher>
        <dc:title>Graduate Icon</dc:title>
        <dc:date>2007-07-16T07:20:10</dc:date>
        <dc:description>Simple icon of a person wearing a mortarboard cap.</dc:description>
        <dc:source>http://openclipart.org/detail/4405/graduate-icon-by-fundraw_dot_com</dc:source>
        <dc:creator>
          <cc:Agent>
            <dc:title>FunDraw_dot_com</dc:title>
          </cc:Agent>
        </dc:creator>
        <dc:subject>
          <rdf:Bag>
            <rdf:li>clip art</rdf:li>
            <rdf:li>clipart</rdf:li>
            <rdf:li>education</rdf:li>
            <rdf:li>graduate</rdf:li>
            <rdf:li>image</rdf:li>
            <rdf:li>media</rdf:li>
            <rdf:li>png</rdf:li>
            <rdf:li>public domain</rdf:li>
            <rdf:li>school</rdf:li>
            <rdf:li>svg</rdf:li>
          </rdf:Bag>
        </dc:subject>
      </cc:Work>
      <cc:License rdf:about="http://creativecommons.org/licenses/publicdomain/">
        <cc:permits rdf:resource="http://creativecommons.org/ns#Reproduction"/>
        <cc:permits rdf:resource="http://creativecommons.org/ns#Distribution"/>
        <cc:permits rdf:resource="http://creativecommons.org/ns#DerivativeWorks"/>
      </cc:License>
    </rdf:RDF>
  </metadata>
</svg>
